<?xml version="1.0" standalone="no"?>
<!DOCTYPE svg PUBLIC "-//W3C//DTD SVG 20010904//EN"
 "http://www.w3.org/TR/2001/REC-SVG-20010904/DTD/svg10.dtd">
<svg version="1.0" xmlns="http://www.w3.org/2000/svg"
 width="451.000000pt" height="451.000000pt" viewBox="0 0 451.000000 451.000000"
 preserveAspectRatio="xMidYMid meet">
<metadata>
Created by potrace 1.14, written by Peter Selinger 2001-2017
</metadata>
<g transform="translate(0.000000,451.000000) scale(0.100000,-0.100000)"
fill="#000000" stroke="none">
<path d="M1530 3410 c0 -5 22 -10 48 -10 85 0 82 18 82 -413 0 -436 8 -406
-105 -420 -16 -2 40 -4 125 -4 114 0 138 2 92 7 -36 4 -70 14 -79 23 -21 21
-26 184 -16 502 l8 240 48 -75 c26 -41 141 -216 255 -387 148 -226 211 -313
225 -313 17 0 18 -8 15 -125 -3 -142 -8 -150 -79 -164 -30 -6 24 -9 176 -9
166 0 206 3 165 9 -83 14 -84 17 -88 183 -4 164 -12 151 96 155 35 1 85 9 110
16 25 8 47 13 49 12 1 -2 -8 -19 -21 -38 -55 -81 -79 -226 -56 -341 25 -132
87 -215 197 -265 95 -44 281 -42 394 4 l39 15 0 123 c0 146 7 171 52 184 24 7
-12 9 -132 9 -99 0 -152 -3 -133 -8 62 -14 63 -17 63 -186 l0 -153 -37 -7
c-54 -10 -149 11 -190 42 -74 56 -110 198 -99 394 11 224 64 311 196 325 98
11 160 -45 160 -143 0 -50 13 -59 65 -42 41 13 65 44 65 81 0 33 -51 81 -107
100 -56 20 -267 18 -315 -3 l-36 -16 25 55 c27 59 35 135 20 204 -13 64 -61
117 -135 152 -66 31 -70 32 -242 35 l-175 4 5 109 c6 125 8 129 83 129 26 0
47 5 47 10 0 6 -55 10 -145 10 -90 0 -145 -4 -145 -10 0 -5 24 -10 53 -10 79
0 87 -13 87 -138 l0 -102 -67 -1 -68 -1 50 -11 c70 -17 75 -30 75 -217 l0
-155 -212 320 -213 320 -137 3 c-90 2 -138 -1 -138 -8z m1021 -286 c47 -24 71
-89 77 -204 10 -207 -47 -300 -183 -300 l-45 0 0 266 0 267 60 -6 c33 -4 74
-14 91 -23z"/>
<path d="M1510 1370 c-10 -19 -10 -20 9 -8 22 13 28 28 11 28 -5 0 -14 -9 -20
-20z"/>
<path d="M3116 1374 c-9 -24 -7 -28 9 -14 17 14 20 30 6 30 -5 0 -12 -7 -15
-16z"/>
<path d="M1675 1308 c0 -58 -3 -73 -15 -73 -19 0 -26 61 -9 81 9 11 8 14 -3
14 -23 0 -38 -22 -38 -56 0 -40 15 -52 65 -52 l40 -1 -3 80 c-3 66 -6 79 -20
79 -14 0 -17 -11 -17 -72z"/>
<path d="M1775 1371 c-3 -5 -1 -12 5 -16 12 -7 30 2 30 16 0 12 -27 12 -35 0z"/>
<path d="M2728 1300 c3 -61 7 -80 18 -80 11 0 14 17 14 80 0 70 -2 80 -17 80
-16 0 -18 -9 -15 -80z"/>
<path d="M2892 1368 c5 -15 28 -18 29 -3 0 6 -7 12 -17 13 -10 3 -15 -1 -12
-10z"/>
<path d="M2995 1300 c0 -73 2 -80 20 -80 19 0 20 6 17 80 -3 67 -6 80 -20 80
-15 0 -17 -12 -17 -80z"/>
<path d="M3482 1368 c6 -18 28 -21 28 -4 0 9 -7 16 -16 16 -9 0 -14 -5 -12
-12z"/>
<path d="M1170 1352 c-41 -33 -21 -132 27 -132 11 0 10 5 -3 25 -20 31 -13 94
13 112 15 11 15 13 1 13 -9 0 -26 -8 -38 -18z"/>
<path d="M2235 1295 c0 -73 1 -75 25 -75 24 0 25 2 25 75 0 73 -1 75 -25 75
-24 0 -25 -2 -25 -75z"/>
<path d="M1257 1340 c3 -11 7 -20 9 -20 2 0 4 9 4 20 0 11 -4 20 -9 20 -5 0
-7 -9 -4 -20z"/>
<path d="M1882 1293 c3 -64 4 -68 28 -71 17 -2 21 0 12 6 -9 6 -13 26 -12 53
3 69 1 79 -15 79 -13 0 -15 -12 -13 -67z"/>
<path d="M1335 1275 c0 -48 2 -55 20 -55 18 0 20 5 17 55 -3 43 -7 55 -20 55
-14 0 -17 -10 -17 -55z"/>
<path d="M1386 1315 c4 -9 11 -14 16 -13 15 5 11 23 -6 26 -11 2 -14 -2 -10
-13z"/>
<path d="M1475 1306 c-33 -50 21 -114 62 -74 13 14 12 15 -11 11 -19 -4 -26
-1 -27 11 -1 9 -2 22 -3 29 -1 6 2 20 6 30 13 26 -9 21 -27 -7z"/>
<path d="M1520 1323 c0 -5 7 -18 15 -29 15 -18 15 -18 13 5 -3 23 -28 44 -28
24z"/>
<path d="M1775 1275 c0 -48 2 -55 20 -55 18 0 20 5 17 55 -3 43 -7 55 -20 55
-14 0 -17 -10 -17 -55z"/>
<path d="M1994 1305 c-16 -25 -12 -63 10 -77 20 -14 26 -8 16 16 -5 15 -5 37
0 55 10 38 -3 41 -26 6z"/>
<path d="M2045 1275 c0 -58 4 -65 25 -40 22 27 9 95 -19 95 -3 0 -6 -25 -6
-55z"/>
<path d="M2345 1275 c0 -48 2 -55 20 -55 18 0 20 7 20 53 -1 44 -4 52 -20 55
-18 2 -20 -3 -20 -53z"/>
<path d="M2410 1315 c8 -9 11 -30 7 -55 -4 -35 -2 -40 14 -40 15 0 19 7 19 39
0 53 -8 71 -32 71 -17 0 -18 -2 -8 -15z"/>
<path d="M2469 1322 c9 -7 12 -25 10 -56 -4 -41 -2 -46 16 -46 19 0 20 5 15
53 -4 46 -8 52 -30 55 -18 2 -21 0 -11 -6z"/>
<path d="M2582 1318 c-23 -23 -10 -98 18 -98 3 0 5 25 5 55 0 57 -3 63 -23 43z"/>
<path d="M2630 1315 c8 -9 11 -30 7 -55 -5 -41 0 -49 21 -28 25 25 7 98 -25
98 -13 0 -13 -3 -3 -15z"/>
<path d="M2783 1319 c20 -12 23 -69 5 -87 -9 -9 -8 -12 5 -12 32 0 50 73 25
98 -7 7 -21 12 -32 12 -19 -1 -19 -1 -3 -11z"/>
<path d="M2885 1275 c0 -48 2 -55 20 -55 18 0 20 5 17 55 -3 43 -7 55 -20 55
-14 0 -17 -10 -17 -55z"/>
<path d="M3095 1275 c0 -48 2 -55 20 -55 18 0 20 5 17 55 -3 43 -7 55 -20 55
-14 0 -17 -10 -17 -55z"/>
<path d="M3204 1317 c-8 -21 2 -35 16 -21 5 5 6 15 0 24 -8 12 -10 12 -16 -3z"/>
<path d="M3247 1286 c2 -25 -1 -47 -6 -50 -16 -10 -24 14 -11 29 16 19 0 19
-25 1 -30 -22 -12 -45 34 -44 41 0 41 1 41 38 0 47 -8 70 -24 70 -8 0 -11 -15
-9 -44z"/>
<path d="M3345 1275 c0 -48 2 -55 20 -55 18 0 20 5 17 55 -3 43 -7 55 -20 55
-14 0 -17 -10 -17 -55z"/>
<path d="M3396 1315 c4 -9 11 -14 16 -13 15 5 11 23 -6 26 -11 2 -14 -2 -10
-13z"/>
<path d="M3475 1275 c0 -48 2 -55 20 -55 18 0 20 5 17 55 -3 43 -7 55 -20 55
-14 0 -17 -10 -17 -55z"/>
<path d="M3592 1318 c-23 -23 -10 -98 18 -98 3 0 5 25 5 55 0 57 -3 63 -23 43z"/>
<path d="M3640 1315 c8 -9 11 -30 7 -55 -5 -41 0 -49 21 -28 25 25 7 98 -25
98 -13 0 -13 -3 -3 -15z"/>
<path d="M1257 1250 c-3 -11 -1 -20 4 -20 5 0 9 9 9 20 0 11 -2 20 -4 20 -2 0
-6 -9 -9 -20z"/>
<path d="M1707 903 c-9 -9 -9 -61 1 -66 4 -3 7 12 7 34 0 21 0 39 -1 39 0 0
-4 -3 -7 -7z"/>
<path d="M1748 893 c7 -12 9 -29 5 -39 -4 -12 -3 -15 5 -10 17 10 15 41 -5 57
-15 13 -15 12 -5 -8z"/>
<path d="M1897 870 c15 -22 28 -38 30 -36 6 5 -40 76 -49 76 -4 0 5 -18 19
-40z"/>
<path d="M2041 898 c-1 -9 4 -20 10 -23 6 -4 14 -17 19 -29 l9 -21 0 22 c1 12
-5 26 -13 30 -7 4 -16 15 -19 23 -4 12 -6 12 -6 -2z"/>
<path d="M2190 876 c0 -19 4 -37 8 -40 4 -2 8 13 7 35 0 21 -3 39 -7 39 -5 0
-8 -15 -8 -34z"/>
<path d="M2358 870 c-2 -22 0 -40 4 -40 5 0 8 18 8 40 0 22 -2 40 -4 40 -2 0
-6 -18 -8 -40z"/>
<path d="M2533 870 c0 -25 2 -35 4 -22 2 12 2 32 0 45 -2 12 -4 2 -4 -23z"/>
<path d="M2715 870 c0 -21 3 -36 8 -33 4 2 7 17 7 33 0 16 -3 31 -7 33 -5 3
-8 -12 -8 -33z"/>
<path d="M2840 870 c0 -22 3 -40 8 -40 4 0 7 18 7 40 0 22 -3 40 -7 40 -5 0
-8 -18 -8 -40z"/>
<path d="M3008 870 c-2 -22 0 -40 4 -40 5 0 8 18 8 40 0 22 -2 40 -4 40 -2 0
-6 -18 -8 -40z"/>
<path d="M3153 897 c4 -11 10 -30 13 -43 3 -13 10 -24 15 -24 4 0 1 17 -8 38
-16 38 -31 61 -20 29z"/>
<path d="M1537 893 c-9 -9 -9 -41 1 -46 4 -3 7 8 7 24 0 16 0 29 -1 29 0 0 -4
-3 -7 -7z"/>
<path d="M2666 884 c-5 -13 8 -54 17 -54 2 0 1 16 -1 35 -5 39 -7 42 -16 19z"/>
<path d="M2877 850 c3 -11 9 -20 15 -20 5 0 4 9 -2 20 -6 11 -12 20 -14 20 -2
0 -2 -9 1 -20z"/>
</g>
</svg>
